<?xml version="1.0" encoding="UTF-8" standalone="no"?><!DOCTYPE svg PUBLIC "-//W3C//DTD SVG 1.1//EN"  "http://www.w3.org/Graphics/SVG/1.1/DTD/svg11.dtd"><!-- Generated by graphviz version 14.1.5 (20260411.2331)  --><!-- Title: A03 Pages: 1 --><svg width="575pt" height="1040pt"  viewBox="0.00 0.00 575.00 1040.00" xmlns="http://www.w3.org/2000/svg" xmlns:xlink="http://www.w3.org/1999/xlink"><g id="graph0" class="graph" transform="scale(1 1) rotate(0) translate(25.2 1015.1)"><title>A03</title><polygon fill="white" stroke="none" points="-25.2,25.2 -25.2,-1015.1 549.7,-1015.1 549.7,25.2 -25.2,25.2"/><text xml:space="preserve" text-anchor="middle" x="262.25" y="-965" font-family="Helvetica,sans-Serif" font-size="22.00">A03 — Analysis sequence (ordered interaction view)</text><!-- n01 --><g id="node1" class="node"><title>n01</title><path fill="#f8fafc" stroke="#64748b" d="M358.14,-959.4C358.14,-959.4 166.36,-959.4 166.36,-959.4 160.36,-959.4 154.36,-953.4 154.36,-947.4 154.36,-947.4 154.36,-933 154.36,-933 154.36,-927 160.36,-921 166.36,-921 166.36,-921 358.14,-921 358.14,-921 364.14,-921 370.14,-927 370.14,-933 370.14,-933 370.14,-947.4 370.14,-947.4 370.14,-953.4 364.14,-959.4 358.14,-959.4"/><text xml:space="preserve" text-anchor="middle" x="262.25" y="-942.7" font-family="Helvetica,sans-Serif" font-size="10.00" fill="#0f172a">1 &#160;Researcher → Web</text><text xml:space="preserve" text-anchor="middle" x="262.25" y="-929.95" font-family="Helvetica,sans-Serif" font-size="10.00" fill="#0f172a">Submit authorized matter and product scope</text></g><!-- n02 --><g id="node2" class="node"><title>n02</title><path fill="#f8fafc" stroke="#64748b" d="M297.77,-898C297.77,-898 226.73,-898 226.73,-898 220.73,-898 214.73,-892 214.73,-886 214.73,-886 214.73,-871.6 214.73,-871.6 214.73,-865.6 220.73,-859.6 226.73,-859.6 226.73,-859.6 297.77,-859.6 297.77,-859.6 303.77,-859.6 309.77,-865.6 309.77,-871.6 309.77,-871.6 309.77,-886 309.77,-886 309.77,-892 303.77,-898 297.77,-898"/><text xml:space="preserve" text-anchor="middle" x="262.25" y="-881.3" font-family="Helvetica,sans-Serif" font-size="10.00" fill="#0f172a">2 &#160;Web → API</text><text xml:space="preserve" text-anchor="middle" x="262.25" y="-868.55" font-family="Helvetica,sans-Serif" font-size="10.00" fill="#0f172a">POST /analyses</text></g><!-- n01&#45;&gt;n02 --><g id="edge1" class="edge"><title>n01&#45;&gt;n02</title><path fill="none" stroke="#64748b" d="M262.25,-920.73C262.25,-916.19 262.25,-911.24 262.25,-906.41"/><polygon fill="#64748b" stroke="#64748b" points="264.53,-906.48 262.25,-899.98 259.98,-906.48 264.53,-906.48"/></g><!-- n03 --><g id="node3" class="node"><title>n03</title><path fill="#f8fafc" stroke="#64748b" d="M326.64,-836.6C326.64,-836.6 197.86,-836.6 197.86,-836.6 191.86,-836.6 185.86,-830.6 185.86,-824.6 185.86,-824.6 185.86,-810.2 185.86,-810.2 185.86,-804.2 191.86,-798.2 197.86,-798.2 197.86,-798.2 326.64,-798.2 326.64,-798.2 332.64,-798.2 338.64,-804.2 338.64,-810.2 338.64,-810.2 338.64,-824.6 338.64,-824.6 338.64,-830.6 332.64,-836.6 326.64,-836.6"/><text xml:space="preserve" text-anchor="middle" x="262.25" y="-819.9" font-family="Helvetica,sans-Serif" font-size="10.00" fill="#0f172a">3 &#160;API → PostgreSQL</text><text xml:space="preserve" text-anchor="middle" x="262.25" y="-807.15" font-family="Helvetica,sans-Serif" font-size="10.00" fill="#0f172a">Create tenant&#45;owned analysis</text></g><!-- n02&#45;&gt;n03 --><g id="edge2" class="edge"><title>n02&#45;&gt;n03</title><path fill="none" stroke="#64748b" d="M262.25,-859.33C262.25,-854.79 262.25,-849.84 262.25,-845.01"/><polygon fill="#64748b" stroke="#64748b" points="264.53,-845.08 262.25,-838.58 259.98,-845.08 264.53,-845.08"/></g><!-- n04 --><g id="node4" class="node"><title>n04</title><path fill="#f8fafc" stroke="#64748b" d="M310.52,-775.2C310.52,-775.2 213.98,-775.2 213.98,-775.2 207.98,-775.2 201.98,-769.2 201.98,-763.2 201.98,-763.2 201.98,-748.8 201.98,-748.8 201.98,-742.8 207.98,-736.8 213.98,-736.8 213.98,-736.8 310.52,-736.8 310.52,-736.8 316.52,-736.8 322.52,-742.8 322.52,-748.8 322.52,-748.8 322.52,-763.2 322.52,-763.2 322.52,-769.2 316.52,-775.2 310.52,-775.2"/><text xml:space="preserve" text-anchor="middle" x="262.25" y="-758.5" font-family="Helvetica,sans-Serif" font-size="10.00" fill="#0f172a">4 &#160;API → Cloud Tasks</text><text xml:space="preserve" text-anchor="middle" x="262.25" y="-745.75" font-family="Helvetica,sans-Serif" font-size="10.00" fill="#0f172a">Enqueue durable task</text></g><!-- n03&#45;&gt;n04 --><g id="edge3" class="edge"><title>n03&#45;&gt;n04</title><path fill="none" stroke="#64748b" d="M262.25,-797.93C262.25,-793.39 262.25,-788.44 262.25,-783.61"/><polygon fill="#64748b" stroke="#64748b" points="264.53,-783.68 262.25,-777.18 259.98,-783.68 264.53,-783.68"/></g><!-- n05 --><g id="node5" class="node"><title>n05</title><path fill="#f8fafc" stroke="#64748b" d="M320.27,-713.8C320.27,-713.8 204.23,-713.8 204.23,-713.8 198.23,-713.8 192.23,-707.8 192.23,-701.8 192.23,-701.8 192.23,-687.4 192.23,-687.4 192.23,-681.4 198.23,-675.4 204.23,-675.4 204.23,-675.4 320.27,-675.4 320.27,-675.4 326.27,-675.4 332.27,-681.4 332.27,-687.4 332.27,-687.4 332.27,-701.8 332.27,-701.8 332.27,-707.8 326.27,-713.8 320.27,-713.8"/><text xml:space="preserve" text-anchor="middle" x="262.25" y="-697.1" font-family="Helvetica,sans-Serif" font-size="10.00" fill="#0f172a">5 &#160;Web → API</text><text xml:space="preserve" text-anchor="middle" x="262.25" y="-684.35" font-family="Helvetica,sans-Serif" font-size="10.00" fill="#0f172a">Subscribe to analysis SSE</text></g><!-- n04&#45;&gt;n05 --><g id="edge4" class="edge"><title>n04&#45;&gt;n05</title><path fill="none" stroke="#64748b" d="M262.25,-736.53C262.25,-731.99 262.25,-727.04 262.25,-722.21"/><polygon fill="#64748b" stroke="#64748b" points="264.53,-722.28 262.25,-715.78 259.98,-722.28 264.53,-722.28"/></g><!-- n06 --><g id="node6" class="node"><title>n06</title><path fill="#f8fafc" stroke="#64748b" d="M358.52,-652.4C358.52,-652.4 165.98,-652.4 165.98,-652.4 159.98,-652.4 153.98,-646.4 153.98,-640.4 153.98,-640.4 153.98,-626 153.98,-626 153.98,-620 159.98,-614 165.98,-614 165.98,-614 358.52,-614 358.52,-614 364.52,-614 370.52,-620 370.52,-626 370.52,-626 370.52,-640.4 370.52,-640.4 370.52,-646.4 364.52,-652.4 358.52,-652.4"/><text xml:space="preserve" text-anchor="middle" x="262.25" y="-635.7" font-family="Helvetica,sans-Serif" font-size="10.00" fill="#0f172a">6 &#160;API → PostgreSQL / Redis</text><text xml:space="preserve" text-anchor="middle" x="262.25" y="-622.95" font-family="Helvetica,sans-Serif" font-size="10.00" fill="#0f172a">Replay persisted events, then subscribe live</text></g><!-- n05&#45;&gt;n06 --><g id="edge5" class="edge"><title>n05&#45;&gt;n06</title><path fill="none" stroke="#64748b" d="M262.25,-675.13C262.25,-670.59 262.25,-665.64 262.25,-660.81"/><polygon fill="#64748b" stroke="#64748b" points="264.53,-660.88 262.25,-654.38 259.98,-660.88 264.53,-660.88"/></g><!-- n07 --><g id="node7" class="node"><title>n07</title><path fill="#f8fafc" stroke="#64748b" d="M338.64,-591C338.64,-591 185.86,-591 185.86,-591 179.86,-591 173.86,-585 173.86,-579 173.86,-579 173.86,-564.6 173.86,-564.6 173.86,-558.6 179.86,-552.6 185.86,-552.6 185.86,-552.6 338.64,-552.6 338.64,-552.6 344.64,-552.6 350.64,-558.6 350.64,-564.6 350.64,-564.6 350.64,-579 350.64,-579 350.64,-585 344.64,-591 338.64,-591"/><text xml:space="preserve" text-anchor="middle" x="262.25" y="-574.3" font-family="Helvetica,sans-Serif" font-size="10.00" fill="#0f172a">7 &#160;Cloud Tasks → Launcher</text><text xml:space="preserve" text-anchor="middle" x="262.25" y="-561.55" font-family="Helvetica,sans-Serif" font-size="10.00" fill="#0f172a">OIDC&#45;authenticated launch request</text></g><!-- n06&#45;&gt;n07 --><g id="edge6" class="edge"><title>n06&#45;&gt;n07</title><path fill="none" stroke="#64748b" d="M262.25,-613.73C262.25,-609.19 262.25,-604.24 262.25,-599.41"/><polygon fill="#64748b" stroke="#64748b" points="264.53,-599.48 262.25,-592.98 259.98,-599.48 264.53,-599.48"/></g><!-- n08 --><g id="node8" class="node"><title>n08</title><path fill="#f8fafc" stroke="#64748b" d="M335.27,-529.6C335.27,-529.6 189.23,-529.6 189.23,-529.6 183.23,-529.6 177.23,-523.6 177.23,-517.6 177.23,-517.6 177.23,-503.2 177.23,-503.2 177.23,-497.2 183.23,-491.2 189.23,-491.2 189.23,-491.2 335.27,-491.2 335.27,-491.2 341.27,-491.2 347.27,-497.2 347.27,-503.2 347.27,-503.2 347.27,-517.6 347.27,-517.6 347.27,-523.6 341.27,-529.6 335.27,-529.6"/><text xml:space="preserve" text-anchor="middle" x="262.25" y="-512.9" font-family="Helvetica,sans-Serif" font-size="10.00" fill="#0f172a">8 &#160;Launcher → PostgreSQL</text><text xml:space="preserve" text-anchor="middle" x="262.25" y="-500.15" font-family="Helvetica,sans-Serif" font-size="10.00" fill="#0f172a">Reserve or reuse execution fence</text></g><!-- n07&#45;&gt;n08 --><g id="edge7" class="edge"><title>n07&#45;&gt;n08</title><path fill="none" stroke="#64748b" d="M262.25,-552.33C262.25,-547.79 262.25,-542.84 262.25,-538.01"/><polygon fill="#64748b" stroke="#64748b" points="264.53,-538.08 262.25,-531.58 259.98,-538.08 264.53,-538.08"/></g><!-- n09 --><g id="node9" class="node"><title>n09</title><path fill="#f8fafc" stroke="#64748b" d="M322.89,-468.2C322.89,-468.2 201.61,-468.2 201.61,-468.2 195.61,-468.2 189.61,-462.2 189.61,-456.2 189.61,-456.2 189.61,-441.8 189.61,-441.8 189.61,-435.8 195.61,-429.8 201.61,-429.8 201.61,-429.8 322.89,-429.8 322.89,-429.8 328.89,-429.8 334.89,-435.8 334.89,-441.8 334.89,-441.8 334.89,-456.2 334.89,-456.2 334.89,-462.2 328.89,-468.2 322.89,-468.2"/><text xml:space="preserve" text-anchor="middle" x="262.25" y="-451.5" font-family="Helvetica,sans-Serif" font-size="10.00" fill="#0f172a">9 &#160;Launcher → Analysis Job</text><text xml:space="preserve" text-anchor="middle" x="262.25" y="-438.75" font-family="Helvetica,sans-Serif" font-size="10.00" fill="#0f172a">Start Job with execution id</text></g><!-- n08&#45;&gt;n09 --><g id="edge8" class="edge"><title>n08&#45;&gt;n09</title><path fill="none" stroke="#64748b" d="M262.25,-490.93C262.25,-486.39 262.25,-481.44 262.25,-476.61"/><polygon fill="#64748b" stroke="#64748b" points="264.53,-476.68 262.25,-470.18 259.98,-476.68 264.53,-476.68"/></g><!-- n10 --><g id="node10" class="node"><title>n10</title><path fill="#f8fafc" stroke="#64748b" d="M342.39,-406.8C342.39,-406.8 182.11,-406.8 182.11,-406.8 176.11,-406.8 170.11,-400.8 170.11,-394.8 170.11,-394.8 170.11,-380.4 170.11,-380.4 170.11,-374.4 176.11,-368.4 182.11,-368.4 182.11,-368.4 342.39,-368.4 342.39,-368.4 348.39,-368.4 354.39,-374.4 354.39,-380.4 354.39,-380.4 354.39,-394.8 354.39,-394.8 354.39,-400.8 348.39,-406.8 342.39,-406.8"/><text xml:space="preserve" text-anchor="middle" x="262.25" y="-390.1" font-family="Helvetica,sans-Serif" font-size="10.00" fill="#0f172a">10 &#160;Job → PostgreSQL</text><text xml:space="preserve" text-anchor="middle" x="262.25" y="-377.35" font-family="Helvetica,sans-Serif" font-size="10.00" fill="#0f172a">Claim tenant&#45;scoped execution lease</text></g><!-- n09&#45;&gt;n10 --><g id="edge9" class="edge"><title>n09&#45;&gt;n10</title><path fill="none" stroke="#64748b" d="M262.25,-429.53C262.25,-424.99 262.25,-420.04 262.25,-415.21"/><polygon fill="#64748b" stroke="#64748b" points="264.53,-415.28 262.25,-408.78 259.98,-415.28 264.53,-415.28"/></g><!-- n11 --><g id="node11" class="node"><title>n11</title><path fill="#ecfeff" stroke="#0f766e" d="M342.39,-345.4C342.39,-345.4 182.11,-345.4 182.11,-345.4 176.11,-345.4 170.11,-339.4 170.11,-333.4 170.11,-333.4 170.11,-319 170.11,-319 170.11,-313 176.11,-307 182.11,-307 182.11,-307 342.39,-307 342.39,-307 348.39,-307 354.39,-313 354.39,-319 354.39,-319 354.39,-333.4 354.39,-333.4 354.39,-339.4 348.39,-345.4 342.39,-345.4"/><text xml:space="preserve" text-anchor="middle" x="262.25" y="-328.7" font-family="Helvetica,sans-Serif" font-size="10.00" fill="#0f172a">11 &#160;Job → PostgreSQL + Redis</text><text xml:space="preserve" text-anchor="middle" x="262.25" y="-315.95" font-family="Helvetica,sans-Serif" font-size="10.00" fill="#0f172a">Persist and publish each stage event</text></g><!-- n10&#45;&gt;n11 --><g id="edge10" class="edge"><title>n10&#45;&gt;n11</title><path fill="none" stroke="#64748b" d="M262.25,-368.13C262.25,-363.59 262.25,-358.64 262.25,-353.81"/><polygon fill="#64748b" stroke="#64748b" points="264.53,-353.88 262.25,-347.38 259.98,-353.88 264.53,-353.88"/></g><!-- n12 --><g id="node12" class="node"><title>n12</title><path fill="#f8fafc" stroke="#64748b" d="M316.14,-284C316.14,-284 208.36,-284 208.36,-284 202.36,-284 196.36,-278 196.36,-272 196.36,-272 196.36,-257.6 196.36,-257.6 196.36,-251.6 202.36,-245.6 208.36,-245.6 208.36,-245.6 316.14,-245.6 316.14,-245.6 322.14,-245.6 328.14,-251.6 328.14,-257.6 328.14,-257.6 328.14,-272 328.14,-272 328.14,-278 322.14,-284 316.14,-284"/><text xml:space="preserve" text-anchor="middle" x="262.25" y="-267.3" font-family="Helvetica,sans-Serif" font-size="10.00" fill="#0f172a">12 &#160;Redis → API → Web</text><text xml:space="preserve" text-anchor="middle" x="262.25" y="-254.55" font-family="Helvetica,sans-Serif" font-size="10.00" fill="#0f172a">Stream SSE progress</text></g><!-- n11&#45;&gt;n12 --><g id="edge11" class="edge"><title>n11&#45;&gt;n12</title><path fill="none" stroke="#64748b" d="M262.25,-306.73C262.25,-302.19 262.25,-297.24 262.25,-292.41"/><polygon fill="#64748b" stroke="#64748b" points="264.53,-292.48 262.25,-285.98 259.98,-292.48 264.53,-292.48"/></g><!-- n13 --><g id="node13" class="node"><title>n13</title><path fill="#f8fafc" stroke="#64748b" d="M328.14,-222.6C328.14,-222.6 196.36,-222.6 196.36,-222.6 190.36,-222.6 184.36,-216.6 184.36,-210.6 184.36,-210.6 184.36,-196.2 184.36,-196.2 184.36,-190.2 190.36,-184.2 196.36,-184.2 196.36,-184.2 328.14,-184.2 328.14,-184.2 334.14,-184.2 340.14,-190.2 340.14,-196.2 340.14,-196.2 340.14,-210.6 340.14,-210.6 340.14,-216.6 334.14,-222.6 328.14,-222.6"/><text xml:space="preserve" text-anchor="middle" x="262.25" y="-205.9" font-family="Helvetica,sans-Serif" font-size="10.00" fill="#0f172a">13 &#160;Job → PostgreSQL</text><text xml:space="preserve" text-anchor="middle" x="262.25" y="-193.15" font-family="Helvetica,sans-Serif" font-size="10.00" fill="#0f172a">Persist report or explicit failure</text></g><!-- n12&#45;&gt;n13 --><g id="edge12" class="edge"><title>n12&#45;&gt;n13</title><path fill="none" stroke="#64748b" d="M262.25,-245.33C262.25,-240.79 262.25,-235.84 262.25,-231.01"/><polygon fill="#64748b" stroke="#64748b" points="264.53,-231.08 262.25,-224.58 259.98,-231.08 264.53,-231.08"/></g><!-- n14 --><g id="node14" class="node"><title>n14</title><path fill="#f8fafc" stroke="#64748b" d="M340.89,-161.2C340.89,-161.2 183.61,-161.2 183.61,-161.2 177.61,-161.2 171.61,-155.2 171.61,-149.2 171.61,-149.2 171.61,-134.8 171.61,-134.8 171.61,-128.8 177.61,-122.8 183.61,-122.8 183.61,-122.8 340.89,-122.8 340.89,-122.8 346.89,-122.8 352.89,-128.8 352.89,-134.8 352.89,-134.8 352.89,-149.2 352.89,-149.2 352.89,-155.2 346.89,-161.2 340.89,-161.2"/><text xml:space="preserve" text-anchor="middle" x="262.25" y="-144.5" font-family="Helvetica,sans-Serif" font-size="10.00" fill="#0f172a">14 &#160;Reviewer → API → PostgreSQL</text><text xml:space="preserve" text-anchor="middle" x="262.25" y="-131.75" font-family="Helvetica,sans-Serif" font-size="10.00" fill="#0f172a">Record decision and audit event</text></g><!-- n13&#45;&gt;n14 --><g id="edge13" class="edge"><title>n13&#45;&gt;n14</title><path fill="none" stroke="#64748b" d="M262.25,-183.93C262.25,-179.39 262.25,-174.44 262.25,-169.61"/><polygon fill="#64748b" stroke="#64748b" points="264.53,-169.68 262.25,-163.18 259.98,-169.68 264.53,-169.68"/></g><!-- n15 --><g id="node15" class="node"><title>n15</title><path fill="#f8fafc" stroke="#64748b" d="M335.64,-99.8C335.64,-99.8 188.86,-99.8 188.86,-99.8 182.86,-99.8 176.86,-93.8 176.86,-87.8 176.86,-87.8 176.86,-73.4 176.86,-73.4 176.86,-67.4 182.86,-61.4 188.86,-61.4 188.86,-61.4 335.64,-61.4 335.64,-61.4 341.64,-61.4 347.64,-67.4 347.64,-73.4 347.64,-73.4 347.64,-87.8 347.64,-87.8 347.64,-93.8 341.64,-99.8 335.64,-99.8"/><text xml:space="preserve" text-anchor="middle" x="262.25" y="-83.1" font-family="Helvetica,sans-Serif" font-size="10.00" fill="#0f172a">15 &#160;Reviewer → API</text><text xml:space="preserve" text-anchor="middle" x="262.25" y="-70.35" font-family="Helvetica,sans-Serif" font-size="10.00" fill="#0f172a">Request governed export or share</text></g><!-- n14&#45;&gt;n15 --><g id="edge14" class="edge"><title>n14&#45;&gt;n15</title><path fill="none" stroke="#64748b" d="M262.25,-122.53C262.25,-117.99 262.25,-113.04 262.25,-108.21"/><polygon fill="#64748b" stroke="#64748b" points="264.53,-108.28 262.25,-101.78 259.98,-108.28 264.53,-108.28"/></g><!-- n16 --><g id="node16" class="node"><title>n16</title><path fill="#f8fafc" stroke="#64748b" d="M337.89,-38.4C337.89,-38.4 186.61,-38.4 186.61,-38.4 180.61,-38.4 174.61,-32.4 174.61,-26.4 174.61,-26.4 174.61,-12 174.61,-12 174.61,-6 180.61,0 186.61,0 186.61,0 337.89,0 337.89,0 343.89,0 349.89,-6 349.89,-12 349.89,-12 349.89,-26.4 349.89,-26.4 349.89,-32.4 343.89,-38.4 337.89,-38.4"/><text xml:space="preserve" text-anchor="middle" x="262.25" y="-21.7" font-family="Helvetica,sans-Serif" font-size="10.00" fill="#0f172a">16 &#160;API → Reviewer</text><text xml:space="preserve" text-anchor="middle" x="262.25" y="-8.95" font-family="Helvetica,sans-Serif" font-size="10.00" fill="#0f172a">Return artefact or blocking findings</text></g><!-- n15&#45;&gt;n16 --><g id="edge15" class="edge"><title>n15&#45;&gt;n16</title><path fill="none" stroke="#64748b" d="M262.25,-61.13C262.25,-56.59 262.25,-51.64 262.25,-46.81"/><polygon fill="#64748b" stroke="#64748b" points="264.53,-46.88 262.25,-40.38 259.98,-46.88 264.53,-46.88"/></g></g></svg>
