<?xml version="1.0" encoding="UTF-8" standalone="no"?><!DOCTYPE svg PUBLIC "-//W3C//DTD SVG 1.1//EN"  "http://www.w3.org/Graphics/SVG/1.1/DTD/svg11.dtd"><!-- Generated by graphviz version 14.1.5 (20260411.2331)  --><!-- Title: A06 Pages: 1 --><svg width="1786pt" height="448pt"  viewBox="0.00 0.00 1786.00 448.00" xmlns="http://www.w3.org/2000/svg" xmlns:xlink="http://www.w3.org/1999/xlink"><g id="graph0" class="graph" transform="scale(1 1) rotate(0) translate(25.2 422.7)"><title>A06</title><polygon fill="white" stroke="none" points="-25.2,25.2 -25.2,-422.7 1760.58,-422.7 1760.58,25.2 -25.2,25.2"/><text xml:space="preserve" text-anchor="middle" x="867.69" y="-372.6" font-family="Helvetica,sans-Serif" font-size="22.00">A06 — Core data model (review&#45;critical subset)</text><!-- org --><g id="node1" class="node"><title>org</title><polygon fill="#f8fafc" stroke="#64748b" points="21,-141.5 21,-177.5 231.33,-177.5 231.33,-141.5 21,-141.5"/><text xml:space="preserve" text-anchor="middle" x="60.51" y="-155.85" font-family="Helvetica,sans-Serif" font-size="9.00" fill="#0f172a">ORGANIZATION</text><polyline fill="none" stroke="#64748b" points="100.02,-141.55 100.02,-177.5"/><text xml:space="preserve" text-anchor="middle" x="126.78" y="-155.85" font-family="Helvetica,sans-Serif" font-size="9.00" fill="#0f172a">uuid id PK</text><polyline fill="none" stroke="#64748b" points="153.54,-141.55 153.54,-177.5"/><text xml:space="preserve" text-anchor="middle" x="170.92" y="-155.85" font-family="Helvetica,sans-Serif" font-size="9.00" fill="#0f172a">name</text><polyline fill="none" stroke="#64748b" points="188.31,-141.55 188.31,-177.5"/><text xml:space="preserve" text-anchor="middle" x="209.82" y="-155.85" font-family="Helvetica,sans-Serif" font-size="9.00" fill="#0f172a">settings</text></g><!-- user --><g id="node2" class="node"><title>user</title><polygon fill="#f8fafc" stroke="#64748b" points="444.83,-198.5 444.83,-234.5 634.16,-234.5 634.16,-198.5 444.83,-198.5"/><text xml:space="preserve" text-anchor="middle" x="463.34" y="-212.85" font-family="Helvetica,sans-Serif" font-size="9.00" fill="#0f172a">USER</text><polyline fill="none" stroke="#64748b" points="481.85,-198.55 481.85,-234.5"/><text xml:space="preserve" text-anchor="middle" x="508.61" y="-212.85" font-family="Helvetica,sans-Serif" font-size="9.00" fill="#0f172a">uuid id PK</text><polyline fill="none" stroke="#64748b" points="535.37,-198.55 535.37,-234.5"/><text xml:space="preserve" text-anchor="middle" x="571.13" y="-212.85" font-family="Helvetica,sans-Serif" font-size="9.00" fill="#0f172a">uuid org_id FK</text><polyline fill="none" stroke="#64748b" points="606.89,-198.55 606.89,-234.5"/><text xml:space="preserve" text-anchor="middle" x="620.52" y="-212.85" font-family="Helvetica,sans-Serif" font-size="9.00" fill="#0f172a">role</text></g><!-- org&#45;&gt;user --><g id="edge1" class="edge"><title>org&#45;&gt;user</title><path fill="none" stroke="#64748b" d="M231.76,-173.99C294.64,-182.71 374.3,-193.75 436.68,-202.39"/><polygon fill="#64748b" stroke="#64748b" points="436.34,-204.64 443.09,-203.28 436.96,-200.13 436.34,-204.64"/><text xml:space="preserve" text-anchor="middle" x="292.7" y="-184.29" font-family="Helvetica,sans-Serif" font-size="8.00">1 : many</text></g><!-- analysis --><g id="node3" class="node"><title>analysis</title><polygon fill="#ecfeff" stroke="#0f766e" points="863.41,-165.5 863.41,-201.5 1230.28,-201.5 1230.28,-165.5 863.41,-165.5"/><text xml:space="preserve" text-anchor="middle" x="890.92" y="-179.85" font-family="Helvetica,sans-Serif" font-size="9.00" fill="#0f172a">ANALYSIS</text><polyline fill="none" stroke="#0f766e" points="918.43,-165.55 918.43,-201.5"/><text xml:space="preserve" text-anchor="middle" x="945.19" y="-179.85" font-family="Helvetica,sans-Serif" font-size="9.00" fill="#0f172a">uuid id PK</text><polyline fill="none" stroke="#0f766e" points="971.95,-165.55 971.95,-201.5"/><text xml:space="preserve" text-anchor="middle" x="1007.71" y="-179.85" font-family="Helvetica,sans-Serif" font-size="9.00" fill="#0f172a">uuid org_id FK</text><polyline fill="none" stroke="#0f766e" points="1043.47,-165.55 1043.47,-201.5"/><text xml:space="preserve" text-anchor="middle" x="1089.73" y="-179.85" font-family="Helvetica,sans-Serif" font-size="9.00" fill="#0f172a">uuid initiated_by FK</text><polyline fill="none" stroke="#0f766e" points="1135.99,-165.55 1135.99,-201.5"/><text xml:space="preserve" text-anchor="middle" x="1153.75" y="-179.85" font-family="Helvetica,sans-Serif" font-size="9.00" fill="#0f172a">status</text><polyline fill="none" stroke="#0f766e" points="1171.51,-165.55 1171.51,-201.5"/><text xml:space="preserve" text-anchor="middle" x="1200.89" y="-179.85" font-family="Helvetica,sans-Serif" font-size="9.00" fill="#0f172a">report_data</text></g><!-- org&#45;&gt;analysis --><g id="edge2" class="edge"><title>org&#45;&gt;analysis</title><path fill="none" stroke="#64748b" d="M231.72,-161.85C354.75,-164.66 565.19,-169.6 745.91,-174.5 781.28,-175.46 818.99,-176.54 855.32,-177.62"/><polygon fill="#64748b" stroke="#64748b" points="854.97,-179.88 861.53,-177.8 855.1,-175.34 854.97,-179.88"/><text xml:space="preserve" text-anchor="middle" x="539.49" y="-175.9" font-family="Helvetica,sans-Serif" font-size="8.00">1 : many</text></g><!-- org_compound --><g id="node11" class="node"><title>org_compound</title><polygon fill="#f8fafc" stroke="#64748b" points="333.08,-64.5 333.08,-100.5 745.91,-100.5 745.91,-64.5 333.08,-64.5"/><text xml:space="preserve" text-anchor="middle" x="402.21" y="-78.85" font-family="Helvetica,sans-Serif" font-size="9.00" fill="#0f172a">ORGANIZATION_COMPOUND</text><polyline fill="none" stroke="#64748b" points="471.35,-64.55 471.35,-100.5"/><text xml:space="preserve" text-anchor="middle" x="514.23" y="-78.85" font-family="Helvetica,sans-Serif" font-size="9.00" fill="#0f172a">uuid org_id PK/FK</text><polyline fill="none" stroke="#64748b" points="557.12,-64.55 557.12,-100.5"/><text xml:space="preserve" text-anchor="middle" x="615" y="-78.85" font-family="Helvetica,sans-Serif" font-size="9.00" fill="#0f172a">uuid compound_id PK/FK</text><polyline fill="none" stroke="#64748b" points="672.89,-64.55 672.89,-100.5"/><text xml:space="preserve" text-anchor="middle" x="709.4" y="-78.85" font-family="Helvetica,sans-Serif" font-size="9.00" fill="#0f172a">analysis_count</text></g><!-- org&#45;&gt;org_compound --><g id="edge10" class="edge"><title>org&#45;&gt;org_compound</title><path fill="none" stroke="#64748b" d="M218.03,-141.06C237.58,-137.17 258.13,-133.14 277.33,-129.5 325.89,-120.28 379.61,-110.54 425.64,-102.32"/><polygon fill="#64748b" stroke="#64748b" points="425.77,-104.61 431.77,-101.23 424.97,-100.13 425.77,-104.61"/><text xml:space="preserve" text-anchor="middle" x="292.7" y="-130.9" font-family="Helvetica,sans-Serif" font-size="8.00">1 : many</text></g><!-- user&#45;&gt;analysis --><g id="edge3" class="edge"><title>user&#45;&gt;analysis</title><path fill="none" stroke="#64748b" d="M634.66,-210.35C696.64,-206.3 779.96,-200.86 855.4,-195.94"/><polygon fill="#64748b" stroke="#64748b" points="855.29,-198.22 861.63,-195.53 854.99,-193.68 855.29,-198.22"/><text xml:space="preserve" text-anchor="middle" x="804.66" y="-202.39" font-family="Helvetica,sans-Serif" font-size="8.00">0..1 initiator : many</text></g><!-- event --><g id="node4" class="node"><title>event</title><polygon fill="#f8fafc" stroke="#64748b" points="1351.9,-330.5 1351.9,-366.5 1694.5,-366.5 1694.5,-330.5 1351.9,-330.5"/><text xml:space="preserve" text-anchor="middle" x="1395.54" y="-344.85" font-family="Helvetica,sans-Serif" font-size="9.00" fill="#0f172a">PIPELINE_EVENT</text><polyline fill="none" stroke="#64748b" points="1439.17,-330.55 1439.17,-366.5"/><text xml:space="preserve" text-anchor="middle" x="1465.93" y="-344.85" font-family="Helvetica,sans-Serif" font-size="9.00" fill="#0f172a">uuid id PK</text><polyline fill="none" stroke="#64748b" points="1492.69,-330.55 1492.69,-366.5"/><text xml:space="preserve" text-anchor="middle" x="1538.58" y="-344.85" font-family="Helvetica,sans-Serif" font-size="9.00" fill="#0f172a">uuid analysis_id FK</text><polyline fill="none" stroke="#64748b" points="1584.46,-330.55 1584.46,-366.5"/><text xml:space="preserve" text-anchor="middle" x="1617.22" y="-344.85" font-family="Helvetica,sans-Serif" font-size="9.00" fill="#0f172a">step_number</text><polyline fill="none" stroke="#64748b" points="1649.98,-330.55 1649.98,-366.5"/><text xml:space="preserve" text-anchor="middle" x="1672.24" y="-344.85" font-family="Helvetica,sans-Serif" font-size="9.00" fill="#0f172a">payload</text></g><!-- analysis&#45;&gt;event --><g id="edge4" class="edge"><title>analysis&#45;&gt;event</title><path fill="none" stroke="#64748b" d="M1076.95,-201.91C1124.16,-230.87 1221.21,-286.73 1311.03,-315.5 1326.66,-320.51 1343.19,-324.77 1359.85,-328.39"/><polygon fill="#64748b" stroke="#64748b" points="1359.19,-330.58 1366.02,-329.7 1360.14,-326.13 1359.19,-330.58"/><text xml:space="preserve" text-anchor="middle" x="1270.65" y="-306.39" font-family="Helvetica,sans-Serif" font-size="8.00">1 : many</text></g><!-- decision --><g id="node5" class="node"><title>decision</title><polygon fill="#f8fafc" stroke="#64748b" points="1313.28,-264.5 1313.28,-300.5 1733.13,-300.5 1733.13,-264.5 1313.28,-264.5"/><text xml:space="preserve" text-anchor="middle" x="1391.79" y="-278.85" font-family="Helvetica,sans-Serif" font-size="9.00" fill="#0f172a">ANALYSIS_REVIEWER_DECISION</text><polyline fill="none" stroke="#64748b" points="1470.3,-264.55 1470.3,-300.5"/><text xml:space="preserve" text-anchor="middle" x="1497.06" y="-278.85" font-family="Helvetica,sans-Serif" font-size="9.00" fill="#0f172a">uuid id PK</text><polyline fill="none" stroke="#64748b" points="1523.82,-264.55 1523.82,-300.5"/><text xml:space="preserve" text-anchor="middle" x="1569.7" y="-278.85" font-family="Helvetica,sans-Serif" font-size="9.00" fill="#0f172a">uuid analysis_id FK</text><polyline fill="none" stroke="#64748b" points="1615.59,-264.55 1615.59,-300.5"/><text xml:space="preserve" text-anchor="middle" x="1651.35" y="-278.85" font-family="Helvetica,sans-Serif" font-size="9.00" fill="#0f172a">uuid org_id FK</text><polyline fill="none" stroke="#64748b" points="1687.11,-264.55 1687.11,-300.5"/><text xml:space="preserve" text-anchor="middle" x="1710.12" y="-278.85" font-family="Helvetica,sans-Serif" font-size="9.00" fill="#0f172a">decision</text></g><!-- analysis&#45;&gt;decision --><g id="edge5" class="edge"><title>analysis&#45;&gt;decision</title><path fill="none" stroke="#64748b" d="M1114.26,-201.93C1167.24,-216.2 1243.51,-235.79 1311.03,-249.5 1334.49,-254.26 1359.54,-258.72 1383.89,-262.73"/><polygon fill="#64748b" stroke="#64748b" points="1383.49,-264.97 1390.27,-263.77 1384.22,-260.48 1383.49,-264.97"/><text xml:space="preserve" text-anchor="middle" x="1270.65" y="-244.82" font-family="Helvetica,sans-Serif" font-size="8.00">1 : many</text></g><!-- review --><g id="node6" class="node"><title>review</title><polygon fill="#f8fafc" stroke="#64748b" points="1329.4,-198.5 1329.4,-234.5 1717,-234.5 1717,-198.5 1329.4,-198.5"/><text xml:space="preserve" text-anchor="middle" x="1397.04" y="-212.85" font-family="Helvetica,sans-Serif" font-size="9.00" fill="#0f172a">ANALYSIS_REVIEW_STATUS</text><polyline fill="none" stroke="#64748b" points="1464.67,-198.55 1464.67,-234.5"/><text xml:space="preserve" text-anchor="middle" x="1491.43" y="-212.85" font-family="Helvetica,sans-Serif" font-size="9.00" fill="#0f172a">uuid id PK</text><polyline fill="none" stroke="#64748b" points="1518.19,-198.55 1518.19,-234.5"/><text xml:space="preserve" text-anchor="middle" x="1564.08" y="-212.85" font-family="Helvetica,sans-Serif" font-size="9.00" fill="#0f172a">uuid analysis_id FK</text><polyline fill="none" stroke="#64748b" points="1609.96,-198.55 1609.96,-234.5"/><text xml:space="preserve" text-anchor="middle" x="1645.72" y="-212.85" font-family="Helvetica,sans-Serif" font-size="9.00" fill="#0f172a">uuid org_id FK</text><polyline fill="none" stroke="#64748b" points="1681.48,-198.55 1681.48,-234.5"/><text xml:space="preserve" text-anchor="middle" x="1699.24" y="-212.85" font-family="Helvetica,sans-Serif" font-size="9.00" fill="#0f172a">status</text></g><!-- analysis&#45;&gt;review --><g id="edge6" class="edge"><title>analysis&#45;&gt;review</title><path fill="none" stroke="#64748b" d="M1230.57,-196.21C1260.28,-198.28 1291.2,-200.43 1321.32,-202.53"/><polygon fill="#64748b" stroke="#64748b" points="1320.81,-204.77 1327.45,-202.95 1321.12,-200.23 1320.81,-204.77"/><text xml:space="preserve" text-anchor="middle" x="1270.65" y="-201.4" font-family="Helvetica,sans-Serif" font-size="8.00">1 : 0..1</text></g><!-- comment --><g id="node7" class="node"><title>comment</title><polygon fill="#f8fafc" stroke="#64748b" points="1385.79,-132.5 1385.79,-168.5 1660.62,-168.5 1660.62,-132.5 1385.79,-132.5"/><text xml:space="preserve" text-anchor="middle" x="1414.8" y="-146.85" font-family="Helvetica,sans-Serif" font-size="9.00" fill="#0f172a">COMMENT</text><polyline fill="none" stroke="#64748b" points="1443.81,-132.55 1443.81,-168.5"/><text xml:space="preserve" text-anchor="middle" x="1470.57" y="-146.85" font-family="Helvetica,sans-Serif" font-size="9.00" fill="#0f172a">uuid id PK</text><polyline fill="none" stroke="#64748b" points="1497.33,-132.55 1497.33,-168.5"/><text xml:space="preserve" text-anchor="middle" x="1543.21" y="-146.85" font-family="Helvetica,sans-Serif" font-size="9.00" fill="#0f172a">uuid analysis_id FK</text><polyline fill="none" stroke="#64748b" points="1589.1,-132.55 1589.1,-168.5"/><text xml:space="preserve" text-anchor="middle" x="1624.86" y="-146.85" font-family="Helvetica,sans-Serif" font-size="9.00" fill="#0f172a">uuid org_id FK</text></g><!-- analysis&#45;&gt;comment --><g id="edge7" class="edge"><title>analysis&#45;&gt;comment</title><path fill="none" stroke="#64748b" d="M1230.57,-170.79C1279.29,-167.4 1331.26,-163.78 1377.63,-160.56"/><polygon fill="#64748b" stroke="#64748b" points="1377.78,-162.83 1384.11,-160.11 1377.47,-158.29 1377.78,-162.83"/><text xml:space="preserve" text-anchor="middle" x="1270.65" y="-170.38" font-family="Helvetica,sans-Serif" font-size="8.00">1 : many</text></g><!-- export --><g id="node8" class="node"><title>export</title><polygon fill="#f8fafc" stroke="#64748b" points="1324.39,-66.5 1324.39,-102.5 1722.01,-102.5 1722.01,-66.5 1324.39,-66.5"/><text xml:space="preserve" text-anchor="middle" x="1359.78" y="-80.85" font-family="Helvetica,sans-Serif" font-size="9.00" fill="#0f172a">EXPORT_JOB</text><polyline fill="none" stroke="#64748b" points="1395.16,-66.55 1395.16,-102.5"/><text xml:space="preserve" text-anchor="middle" x="1421.92" y="-80.85" font-family="Helvetica,sans-Serif" font-size="9.00" fill="#0f172a">uuid id PK</text><polyline fill="none" stroke="#64748b" points="1448.68,-66.55 1448.68,-102.5"/><text xml:space="preserve" text-anchor="middle" x="1494.57" y="-80.85" font-family="Helvetica,sans-Serif" font-size="9.00" fill="#0f172a">uuid analysis_id FK</text><polyline fill="none" stroke="#64748b" points="1540.45,-66.55 1540.45,-102.5"/><text xml:space="preserve" text-anchor="middle" x="1576.21" y="-80.85" font-family="Helvetica,sans-Serif" font-size="9.00" fill="#0f172a">uuid org_id FK</text><polyline fill="none" stroke="#64748b" points="1611.97,-66.55 1611.97,-102.5"/><text xml:space="preserve" text-anchor="middle" x="1629.73" y="-80.85" font-family="Helvetica,sans-Serif" font-size="9.00" fill="#0f172a">status</text><polyline fill="none" stroke="#64748b" points="1647.49,-66.55 1647.49,-102.5"/><text xml:space="preserve" text-anchor="middle" x="1684.75" y="-80.85" font-family="Helvetica,sans-Serif" font-size="9.00" fill="#0f172a">artifact_sha256</text></g><!-- analysis&#45;&gt;export --><g id="edge8" class="edge"><title>analysis&#45;&gt;export</title><path fill="none" stroke="#64748b" d="M1114.26,-165.07C1167.24,-150.8 1243.51,-131.21 1311.03,-117.5 1334.49,-112.74 1359.54,-108.28 1383.89,-104.27"/><polygon fill="#64748b" stroke="#64748b" points="1384.22,-106.52 1390.27,-103.23 1383.49,-102.03 1384.22,-106.52"/><text xml:space="preserve" text-anchor="middle" x="1270.65" y="-129.87" font-family="Helvetica,sans-Serif" font-size="8.00">1 : many</text></g><!-- grant --><g id="node9" class="node"><title>grant</title><polygon fill="#f8fafc" stroke="#64748b" points="1311.03,-0.5 1311.03,-36.5 1735.38,-36.5 1735.38,-0.5 1311.03,-0.5"/><text xml:space="preserve" text-anchor="middle" x="1380.54" y="-14.85" font-family="Helvetica,sans-Serif" font-size="9.00" fill="#0f172a">EXTERNAL_REPORT_GRANT</text><polyline fill="none" stroke="#64748b" points="1450.05,-0.55 1450.05,-36.5"/><text xml:space="preserve" text-anchor="middle" x="1476.81" y="-14.85" font-family="Helvetica,sans-Serif" font-size="9.00" fill="#0f172a">uuid id PK</text><polyline fill="none" stroke="#64748b" points="1503.57,-0.55 1503.57,-36.5"/><text xml:space="preserve" text-anchor="middle" x="1549.45" y="-14.85" font-family="Helvetica,sans-Serif" font-size="9.00" fill="#0f172a">uuid analysis_id FK</text><polyline fill="none" stroke="#64748b" points="1595.34,-0.55 1595.34,-36.5"/><text xml:space="preserve" text-anchor="middle" x="1631.1" y="-14.85" font-family="Helvetica,sans-Serif" font-size="9.00" fill="#0f172a">uuid org_id FK</text><polyline fill="none" stroke="#64748b" points="1666.86,-0.55 1666.86,-36.5"/><text xml:space="preserve" text-anchor="middle" x="1701.12" y="-14.85" font-family="Helvetica,sans-Serif" font-size="9.00" fill="#0f172a">delivery_state</text></g><!-- analysis&#45;&gt;grant --><g id="edge9" class="edge"><title>analysis&#45;&gt;grant</title><path fill="none" stroke="#64748b" d="M1076.95,-165.09C1124.16,-136.13 1221.21,-80.27 1311.03,-51.5 1326.66,-46.49 1343.19,-42.23 1359.85,-38.61"/><polygon fill="#64748b" stroke="#64748b" points="1360.14,-40.87 1366.02,-37.3 1359.19,-36.42 1360.14,-40.87"/><text xml:space="preserve" text-anchor="middle" x="1270.65" y="-72.34" font-family="Helvetica,sans-Serif" font-size="8.00">1 : many</text></g><!-- compound --><g id="node10" class="node"><title>compound</title><polygon fill="#f8fafc" stroke="#64748b" points="0,-64.5 0,-100.5 252.33,-100.5 252.33,-64.5 0,-64.5"/><text xml:space="preserve" text-anchor="middle" x="32.76" y="-78.85" font-family="Helvetica,sans-Serif" font-size="9.00" fill="#0f172a">COMPOUND</text><polyline fill="none" stroke="#64748b" points="65.52,-64.55 65.52,-100.5"/><text xml:space="preserve" text-anchor="middle" x="92.28" y="-78.85" font-family="Helvetica,sans-Serif" font-size="9.00" fill="#0f172a">uuid id PK</text><polyline fill="none" stroke="#64748b" points="119.04,-64.55 119.04,-100.5"/><text xml:space="preserve" text-anchor="middle" x="160.42" y="-78.85" font-family="Helvetica,sans-Serif" font-size="9.00" fill="#0f172a">canonical_smiles</text><polyline fill="none" stroke="#64748b" points="201.81,-64.55 201.81,-100.5"/><text xml:space="preserve" text-anchor="middle" x="227.07" y="-78.85" font-family="Helvetica,sans-Serif" font-size="9.00" fill="#0f172a">inchi_key</text></g><!-- compound&#45;&gt;org_compound --><g id="edge11" class="edge"><title>compound&#45;&gt;org_compound</title><path fill="none" stroke="#64748b" d="M252.81,-82.5C275.73,-82.5 300.22,-82.5 324.86,-82.5"/><polygon fill="#64748b" stroke="#64748b" points="324.85,-84.78 331.35,-82.5 324.85,-80.23 324.85,-84.78"/><text xml:space="preserve" text-anchor="middle" x="292.7" y="-83.9" font-family="Helvetica,sans-Serif" font-size="8.00">1 : many</text></g></g></svg>
