<svg xmlns="http://www.w3.org/2000/svg" viewBox="0 0 1600 1000">
  <title>Praviar evidence dossier thread</title>
  <desc>Generated evidence-thread field for connected patent dossier surfaces.</desc>
  <defs>
    <linearGradient id="paperVeil" x1="0" y1="0" x2="1" y2="1">
      <stop offset="0" stop-color="#F6F4EF" stop-opacity="0.66"/>
      <stop offset="0.62" stop-color="#D7ECE5" stop-opacity="0.36"/>
      <stop offset="1" stop-color="#D7ECE5" stop-opacity="0.08"/>
    </linearGradient>
    <pattern id="microEvidence" width="128" height="128" patternUnits="userSpaceOnUse">
      <path d="M18 34h68M18 62h96M18 90h54" stroke="#0B1F24" stroke-width="1" opacity="0.075"/>
      <circle cx="106" cy="34" r="2" fill="#0E6F68" opacity="0.18"/>
      <circle cx="86" cy="92" r="1.6" fill="#B87333" opacity="0.18"/>
    </pattern>
  </defs>

  <g opacity="0.72">
    <path d="M760 116c168-46 362-18 528 76 140 80 228 208 244 358 18 170-72 300-240 352-184 57-410 10-552-116-128-113-174-284-112-432 35-84 78-196 132-238Z" fill="url(#paperVeil)"/>
    <path d="M826 136c132-28 286-4 420 66 118 62 204 164 226 278 28 144-34 258-170 314-150 62-338 34-466-70-114-92-164-234-126-360 26-86 54-178 116-228Z" fill="url(#microEvidence)" opacity="0.84"/>
  </g>

  <g opacity="0.58" fill="none" stroke-linecap="round" stroke-linejoin="round">
    <path d="M904 234c112-24 236-4 346 56 86 47 150 122 178 214" stroke="#0E6F68" stroke-width="2.4" stroke-opacity="0.34"/>
    <path d="M848 662c120 78 260 112 420 82 88-16 158-49 210-98" stroke="#B87333" stroke-width="2" stroke-opacity="0.32"/>
    <path d="M702 790c162-64 306-58 432 18 98 60 210 68 336 24" stroke="#0B1F24" stroke-width="1.5" stroke-opacity="0.14"/>
  </g>

  <g opacity="0.76">
    <rect x="920" y="168" width="438" height="274" rx="30" fill="#F6F4EF" fill-opacity="0.56" stroke="#F6F4EF" stroke-width="1.2"/>
    <rect x="956" y="216" width="154" height="10" rx="5" fill="#0E6F68" opacity="0.3"/>
    <rect x="956" y="260" width="284" height="8" rx="4" fill="#0B1F24" opacity="0.12"/>
    <rect x="956" y="294" width="336" height="8" rx="4" fill="#0B1F24" opacity="0.1"/>
    <rect x="956" y="328" width="232" height="8" rx="4" fill="#0B1F24" opacity="0.085"/>
    <rect x="956" y="374" width="112" height="40" rx="12" fill="#D7ECE5" stroke="#5FB7A6" stroke-opacity="0.58"/>
    <rect x="1088" y="374" width="112" height="40" rx="12" fill="#F6F4EF" stroke="#D7ECE5"/>
    <rect x="1220" y="374" width="84" height="40" rx="12" fill="#F6F4EF" stroke="#B87333" stroke-opacity="0.58"/>
  </g>

  <g opacity="0.54" fill="none" stroke-linecap="round" stroke-linejoin="round">
    <path d="M1018 548c72-38 148-38 228 0 64 30 128 30 192 0" stroke="#0B1F24" stroke-width="1.8" stroke-opacity="0.16"/>
    <path d="M1018 640c82-34 164-30 246 12 58 30 124 24 198-18" stroke="#0E6F68" stroke-width="1.8" stroke-opacity="0.22"/>
    <rect x="1004" y="516" width="126" height="58" rx="14" fill="#F6F4EF" fill-opacity="0.36" stroke="#5FB7A6" stroke-opacity="0.34"/>
    <rect x="1192" y="524" width="108" height="48" rx="12" fill="#F6F4EF" fill-opacity="0.32" stroke="#D7ECE5" stroke-opacity="0.62"/>
    <rect x="1362" y="512" width="112" height="58" rx="14" fill="#F6F4EF" fill-opacity="0.32" stroke="#B87333" stroke-opacity="0.32"/>
    <rect x="1050" y="624" width="118" height="54" rx="13" fill="#F6F4EF" fill-opacity="0.28" stroke="#D7ECE5" stroke-opacity="0.58"/>
    <rect x="1242" y="640" width="138" height="50" rx="13" fill="#F6F4EF" fill-opacity="0.3" stroke="#5FB7A6" stroke-opacity="0.3"/>
    <path d="M1034 536h72M1034 552h46M1214 542h64M1214 558h38M1384 532h62M1384 552h42M1072 642h70M1072 660h38M1268 658h84M1268 674h52" stroke="#0B1F24" stroke-width="1.6" stroke-opacity="0.16"/>
    <path d="M1130 546h62M1300 548h62M1168 650h74" stroke="#0E6F68" stroke-width="1.8" stroke-opacity="0.3"/>
    <path d="M1380 665h54" stroke="#B87333" stroke-width="1.8" stroke-opacity="0.34"/>
  </g>

  <g opacity="0.48" fill="none" stroke="#0E6F68" stroke-linecap="round">
    <path d="M656 314c96-42 188-46 276-12 82 32 160 28 234-12"/>
    <path d="M616 452c114-52 220-54 318-7 92 44 186 40 282-14"/>
    <path d="M604 592c126-48 240-42 342 18 86 51 186 48 300-8"/>
  </g>
</svg>
